<?xml version="1.0" encoding="iso-8859-1"?>
<!-- Generator: Adobe Illustrator 19.0.0, SVG Export Plug-In . SVG Version: 6.00 Build 0)  -->
<svg version="1.1" id="Capa_1" xmlns="http://www.w3.org/2000/svg" xmlns:xlink="http://www.w3.org/1999/xlink" x="0px" y="0px"
	 viewBox="0 0 512 512" style="enable-background:new 0 0 512 512;" xml:space="preserve">
<g>
	<g>
		<path d="M426.939,108.527c-15.48-56.165-66.927-95.935-126.029-95.935c-34.072,0-66.456,13.212-90.709,36.641
			c-14.924-8.453-31.718-12.868-49.262-12.868c-51.057,0-93.635,38.803-99.477,88.463C25.416,140.043,0,175.525,0,217.201
			c0,72.471,74.944,120.939,140.869,91.449c27.378,31.294,67.337,49.64,109.289,49.64c38.442,0,75.062-15.257,102.246-42.235
			C425.791,352.061,512,298.329,512,216.423C512,165.137,476.662,120.474,426.939,108.527z"/>
	</g>
</g>
<g>
	<g>
		<path d="M354,349.408c-30.327,0-55,24.673-55,55c0,30.327,24.673,55,55,55c30.327,0,55-24.673,55-55
			C409,374.081,384.327,349.408,354,349.408z"/>
	</g>
</g>
<g>
	<g>
		<path d="M467,409.408c-24.813,0-45,20.187-45,45s20.187,45,45,45s45-20.187,45-45S491.813,409.408,467,409.408z"/>
	</g>
</g>
<g>
</g>
<g>
</g>
<g>
</g>
<g>
</g>
<g>
</g>
<g>
</g>
<g>
</g>
<g>
</g>
<g>
</g>
<g>
</g>
<g>
</g>
<g>
</g>
<g>
</g>
<g>
</g>
<g>
</g>
</svg>
